<svg id="Layer_2" data-name="Layer 2" xmlns="http://www.w3.org/2000/svg" viewBox="0 0 198.43 198.43"><defs><style>.cls-1,.cls-2{fill:none;stroke:#231f20;stroke-miterlimit:10;}.cls-1{stroke-width:2px;}</style></defs><polyline class="cls-1" points="0 43.64 34.46 43.64 50.62 60.94 50.62 199.19"/><line class="cls-1" x1="166.34" y1="67.23" x2="166.34" y2="197.44"/><polyline class="cls-1" points="123.43 72.73 123.43 51.57 166.34 51.57 166.34 67.23"/><path class="cls-1" d="M95.61,52.37a9.55,9.55,0,0,0,9.55,9.55V72.73"/><path class="cls-1" d="M78.88,52.37a9.55,9.55,0,0,1-9.55,9.55V72.73"/><path class="cls-1" d="M78.94,52.62a8.31,8.31,0,1,1,16.61,0"/><line class="cls-2" y1="61.54" x2="50.62" y2="61.54"/><circle class="cls-2" cx="14.89" cy="52.62" r="6.31"/><circle class="cls-2" cx="8.58" cy="75.55" r="4.5"/><circle class="cls-2" cx="28.3" cy="75.55" r="4.5"/><rect class="cls-2" x="5.36" y="89.66" width="19.06" height="26.27"/><line class="cls-2" x1="14.89" y1="89.66" x2="14.89" y2="115.92"/><line class="cls-2" x1="5.36" y1="98" x2="24.42" y2="98"/><line class="cls-2" x1="5.36" y1="107.36" x2="24.42" y2="107.36"/><rect class="cls-2" x="32.97" y="89.56" width="8.55" height="26.27"/><line class="cls-2" x1="32.97" y1="97.9" x2="41.51" y2="97.9"/><line class="cls-2" x1="32.97" y1="107.27" x2="41.51" y2="107.27"/><rect class="cls-2" x="5.36" y="125.63" width="19.06" height="26.27"/><line class="cls-2" x1="14.89" y1="125.63" x2="14.89" y2="151.9"/><line class="cls-2" x1="5.36" y1="133.98" x2="24.42" y2="133.98"/><line class="cls-2" x1="5.36" y1="143.34" x2="24.42" y2="143.34"/><rect class="cls-2" x="32.97" y="125.53" width="8.55" height="26.27"/><line class="cls-2" x1="32.97" y1="133.88" x2="41.51" y2="133.88"/><line class="cls-2" x1="32.97" y1="143.24" x2="41.51" y2="143.24"/><rect class="cls-2" x="5.36" y="161.61" width="19.06" height="26.27"/><line class="cls-2" x1="14.89" y1="161.61" x2="14.89" y2="187.88"/><line class="cls-2" x1="5.36" y1="169.96" x2="24.42" y2="169.96"/><line class="cls-2" x1="5.36" y1="179.32" x2="24.42" y2="179.32"/><rect class="cls-2" x="64.74" y="89.56" width="8.73" height="8.73"/><rect class="cls-2" x="83.11" y="89.56" width="8.73" height="8.73"/><rect class="cls-2" x="101.03" y="89.56" width="8.73" height="8.73"/><rect class="cls-2" x="60.22" y="107.27" width="17.35" height="8.56"/><rect class="cls-2" x="96.29" y="107.27" width="17.35" height="8.56"/><rect class="cls-2" x="64.06" y="124.53" width="17.46" height="18.3"/><rect class="cls-2" x="90.55" y="124.53" width="18.3" height="18.3"/><line class="cls-2" x1="99.7" y1="124.53" x2="99.7" y2="142.83"/><line class="cls-2" x1="108.85" y1="133.68" x2="90.55" y2="133.68"/><line class="cls-2" x1="81.52" y1="133.68" x2="64.06" y2="133.68"/><line class="cls-2" x1="72.76" y1="124.53" x2="72.76" y2="142.83"/><line class="cls-2" x1="69.33" y1="107.27" x2="69.33" y2="115.75"/><line class="cls-2" x1="105.16" y1="107.41" x2="105.16" y2="115.75"/><rect class="cls-2" x="90.55" y="152.14" width="18.3" height="18.3"/><line class="cls-2" x1="99.7" y1="152.14" x2="99.7" y2="170.43"/><line class="cls-2" x1="108.85" y1="161.28" x2="90.55" y2="161.28"/><path class="cls-2" d="M81.67,198.2V180.42a8.91,8.91,0,1,0-17.82,0V198.2"/><rect class="cls-2" x="64.08" y="152.51" width="17.35" height="8.56"/><line class="cls-2" x1="73.19" y1="152.51" x2="73.19" y2="161"/><rect class="cls-2" x="91.02" y="179.27" width="17.35" height="8.56"/><line class="cls-2" x1="100.12" y1="179.27" x2="100.12" y2="187.76"/><line class="cls-2" x1="123.43" y1="62.55" x2="166.34" y2="62.55"/><rect class="cls-2" x="129.76" y="70.84" width="8.55" height="26.27"/><line class="cls-2" x1="129.76" y1="79.19" x2="138.31" y2="79.19"/><line class="cls-2" x1="129.76" y1="88.55" x2="138.31" y2="88.55"/><polyline class="cls-2" points="150.37 199.02 150.37 180.84 166.34 180.84 166.34 199.02"/><rect class="cls-2" x="132.55" y="179.27" width="8.55" height="9.09"/><line class="cls-1" x1="70.34" y1="72.73" x2="50.62" y2="72.73"/><line class="cls-1" x1="124.02" y1="72.73" x2="104.12" y2="72.73"/><line class="cls-1" x1="123.43" y1="72.73" x2="123.43" y2="200.78"/><circle class="cls-2" cx="87.34" cy="67.05" r="4.5"/><rect class="cls-2" x="151.39" y="70.84" width="8.55" height="26.27"/><line class="cls-2" x1="151.39" y1="79.19" x2="159.93" y2="79.19"/><line class="cls-2" x1="151.39" y1="88.55" x2="159.93" y2="88.55"/><rect class="cls-2" x="140.61" y="70.84" width="8.55" height="26.27"/><line class="cls-2" x1="140.61" y1="79.19" x2="149.16" y2="79.19"/><line class="cls-2" x1="140.61" y1="88.55" x2="149.16" y2="88.55"/><rect class="cls-2" x="129.8" y="105.4" width="8.55" height="26.27"/><line class="cls-2" x1="129.8" y1="113.74" x2="138.34" y2="113.74"/><line class="cls-2" x1="129.8" y1="123.11" x2="138.34" y2="123.11"/><rect class="cls-2" x="151.43" y="105.4" width="8.55" height="26.27"/><line class="cls-2" x1="151.43" y1="113.74" x2="159.97" y2="113.74"/><line class="cls-2" x1="151.43" y1="123.11" x2="159.97" y2="123.11"/><rect class="cls-2" x="140.65" y="105.4" width="8.55" height="26.27"/><line class="cls-2" x1="140.65" y1="113.74" x2="149.2" y2="113.74"/><line class="cls-2" x1="140.65" y1="123.11" x2="149.2" y2="123.11"/><rect class="cls-2" x="129.8" y="139.37" width="8.55" height="26.27"/><line class="cls-2" x1="129.8" y1="147.72" x2="138.34" y2="147.72"/><line class="cls-2" x1="129.8" y1="157.08" x2="138.34" y2="157.08"/><rect class="cls-2" x="151.43" y="139.37" width="8.55" height="26.27"/><line class="cls-2" x1="151.43" y1="147.72" x2="159.97" y2="147.72"/><line class="cls-2" x1="151.43" y1="157.08" x2="159.97" y2="157.08"/><rect class="cls-2" x="140.65" y="139.37" width="8.55" height="26.27"/><line class="cls-2" x1="140.65" y1="147.72" x2="149.2" y2="147.72"/><line class="cls-2" x1="140.65" y1="157.08" x2="149.2" y2="157.08"/><line class="cls-2" x1="176.88" y1="96.75" x2="176.88" y2="115.1"/><polyline class="cls-1" points="167.51 60.66 185.4 42.76 198.64 42.76"/><line class="cls-2" x1="166.34" y1="60.66" x2="198.43" y2="60.66"/><circle class="cls-2" cx="189.82" cy="74.66" r="4.5"/><rect class="cls-2" x="176.62" y="88.77" width="8.55" height="26.27"/><line class="cls-2" x1="176.62" y1="97.12" x2="185.16" y2="97.12"/><line class="cls-2" x1="176.62" y1="106.48" x2="185.16" y2="106.48"/><rect class="cls-2" x="176.62" y="124.75" width="8.55" height="26.27"/><line class="cls-2" x1="176.62" y1="133.1" x2="185.16" y2="133.1"/><line class="cls-2" x1="176.62" y1="142.46" x2="185.16" y2="142.46"/><path class="cls-2" d="M198.36,198.2V180.42a8.91,8.91,0,0,0-17.82,0V198.2"/><rect class="cls-2" x="32.86" y="161.61" width="8.55" height="26.27"/><line class="cls-2" x1="32.86" y1="169.96" x2="41.41" y2="169.96"/><line class="cls-2" x1="32.86" y1="179.32" x2="41.41" y2="179.32"/><line class="cls-2" x1="190.31" y1="96.65" x2="190.31" y2="115"/><rect class="cls-2" x="190.05" y="88.67" width="8.55" height="26.27"/><line class="cls-2" x1="190.05" y1="97.02" x2="198.59" y2="97.02"/><line class="cls-2" x1="190.05" y1="106.38" x2="198.59" y2="106.38"/><rect class="cls-2" x="190.05" y="124.65" width="8.55" height="26.27"/><line class="cls-2" x1="190.05" y1="133" x2="198.59" y2="133"/><line class="cls-2" x1="190.05" y1="142.36" x2="198.59" y2="142.36"/></svg>
