<?xml version="1.0" encoding="utf-8"?>
<!-- Generator: Adobe Illustrator 24.3.0, SVG Export Plug-In . SVG Version: 6.00 Build 0)  -->
<svg version="1.1" id="Layer_2_1_" xmlns="http://www.w3.org/2000/svg" xmlns:xlink="http://www.w3.org/1999/xlink" x="0px" y="0px"
	 viewBox="0 0 198.4 198.4" style="enable-background:new 0 0 198.4 198.4;" xml:space="preserve">
<style type="text/css">
	.st0{fill:none;stroke:#FFFFFF;stroke-width:2;stroke-miterlimit:10;}
	.st1{fill:none;stroke:#FFFFFF;stroke-miterlimit:10;}
</style>
<polyline class="st0" points="26,199.2 26,142 176.1,142 176.1,199.2 "/>
<line class="st0" x1="40.7" y1="197.6" x2="40.7" y2="142.4"/>
<line class="st0" x1="161.4" y1="198.9" x2="161.4" y2="142.3"/>
<path class="st0" d="M128.1,160.8c-5.3-14.7-21.5-22.4-36.2-17.1c-8,2.9-14.2,9.1-17.1,17.1H128.1z"/>
<line class="st0" x1="128.1" y1="160.8" x2="128.1" y2="199.2"/>
<line class="st0" x1="74.7" y1="160.8" x2="74.7" y2="198.9"/>
<line class="st0" x1="74.7" y1="165.3" x2="128.1" y2="165.3"/>
<line class="st0" x1="82.5" y1="165.3" x2="82.5" y2="199.2"/>
<line class="st0" x1="119.7" y1="165.3" x2="119.7" y2="198.9"/>
<path class="st0" d="M119.9,172.2c-10.8-9.4-26.9-9.2-37.5,0.4"/>
<polyline class="st0" points="82.5,174.8 96.2,174.8 96.2,199.2 "/>
<polyline class="st0" points="119.7,174.8 106.3,174.8 106.3,198.9 "/>
<line class="st1" x1="87.5" y1="169" x2="87.5" y2="174.8"/>
<line class="st1" x1="91.9" y1="166.9" x2="91.9" y2="174.8"/>
<line class="st1" x1="96.2" y1="165.8" x2="96.2" y2="174.8"/>
<line class="st1" x1="101.4" y1="165.3" x2="101.4" y2="197.2"/>
<line class="st1" x1="106.3" y1="165.8" x2="106.3" y2="174.8"/>
<line class="st1" x1="110.9" y1="166.9" x2="110.9" y2="174.8"/>
<line class="st1" x1="115.3" y1="169" x2="115.3" y2="174.8"/>
<polyline class="st0" points="12.9,171.3 12.9,142 26,142 26,132.7 176.1,132.7 176.1,142 190.2,142 190.2,199.2 "/>
<line class="st0" x1="63.7" y1="132.7" x2="63.7" y2="142"/>
<line class="st0" x1="138.6" y1="132.7" x2="138.6" y2="142"/>
<path class="st0" d="M128.7,132.7c-4.1-13.5-15-23.1-27.8-23.1s-23.8,9.6-27.8,23.1L128.7,132.7z"/>
<path class="st0" d="M176.2,132.7c-4.6-13-18.9-19.9-31.9-15.3c-7.1,2.5-12.7,8.1-15.3,15.3H176.2z"/>
<path class="st0" d="M73.1,132.7c-4.6-13-18.9-19.9-31.9-15.3c-7.1,2.5-12.7,8.1-15.3,15.3H73.1z"/>
<rect x="33.5" y="135" class="st1" width="4.6" height="4.6"/>
<rect x="42.8" y="135" class="st1" width="4.6" height="4.6"/>
<rect x="52.1" y="135" class="st1" width="4.6" height="4.6"/>
<rect x="70.7" y="135" class="st1" width="4.6" height="4.6"/>
<rect x="80.1" y="135" class="st1" width="4.6" height="4.6"/>
<rect x="89.4" y="135" class="st1" width="4.6" height="4.6"/>
<rect x="98.3" y="135" class="st1" width="4.6" height="4.6"/>
<rect x="107.6" y="135" class="st1" width="4.6" height="4.6"/>
<rect x="117" y="135" class="st1" width="4.6" height="4.6"/>
<rect x="126.7" y="135" class="st1" width="4.6" height="4.6"/>
<rect x="146" y="135" class="st1" width="4.6" height="4.6"/>
<rect x="155.4" y="135" class="st1" width="4.6" height="4.6"/>
<rect x="164.7" y="135" class="st1" width="4.6" height="4.6"/>
<line class="st1" x1="28.1" y1="128.1" x2="70.8" y2="128.1"/>
<line class="st1" x1="74.7" y1="128.1" x2="126.7" y2="128.1"/>
<line class="st1" x1="131.3" y1="128.1" x2="174.2" y2="128.1"/>
<rect x="133.8" y="146.9" class="st1" width="9.1" height="13.9"/>
<rect x="148.4" y="146.9" class="st1" width="9.3" height="13.9"/>
<rect x="133.8" y="164.9" class="st1" width="9.1" height="13.9"/>
<rect x="148.4" y="164.9" class="st1" width="9.3" height="13.9"/>
<rect x="133.8" y="183.6" class="st1" width="9.1" height="13.9"/>
<rect x="148.4" y="183.6" class="st1" width="9.3" height="13.9"/>
<rect x="45.8" y="146.3" class="st1" width="9.1" height="13.9"/>
<rect x="60.3" y="146.3" class="st1" width="9.3" height="13.9"/>
<rect x="45.8" y="164.3" class="st1" width="9.1" height="13.9"/>
<rect x="60.3" y="164.3" class="st1" width="9.3" height="13.9"/>
<rect x="45.8" y="183" class="st1" width="9.1" height="13.9"/>
<rect x="60.3" y="183" class="st1" width="9.3" height="13.9"/>
<polyline class="st0" points="73.1,132.7 73.1,109.6 128.7,109.6 129.1,132.7 "/>
<polyline class="st0" points="73.1,109.6 64.1,109.6 64.1,120.5 "/>
<polyline class="st0" points="128.7,109.6 138.6,109.6 138.6,120.2 "/>
<polyline class="st0" points="66.1,109.6 66.1,100.4 71,100.4 71,109.6 "/>
<path class="st0" d="M66.1,100.4C66,99,67,97.9,68.4,97.8s2.5,0.9,2.6,2.3c0,0.1,0,0.2,0,0.3h60.2c-0.1-1.4,0.9-2.5,2.3-2.6
	c1.4-0.1,2.5,0.9,2.6,2.3c0,0.1,0,0.2,0,0.3"/>
<line class="st0" x1="68.6" y1="97.9" x2="68.6" y2="93.8"/>
<polyline class="st0" points="131.2,109.6 131.2,100.4 136.1,100.4 136.1,109.6 "/>
<line class="st0" x1="133.7" y1="97.9" x2="133.7" y2="93.8"/>
<line class="st0" x1="71" y1="103.9" x2="131.2" y2="103.9"/>
<path class="st0" d="M133.6,97.8C123.5,80,101,73.7,83.2,83.7C77.2,87,72.4,91.9,69,97.8"/>
<line class="st0" x1="101.3" y1="78.9" x2="101.3" y2="67.2"/>
<polyline class="st0" points="14.3,142 14.3,132.7 15.8,132.7 23.6,132.7 23.6,142 "/>
<polyline class="st0" points="15.8,132.7 15.8,123.3 21.9,123.3 21.9,132.4 "/>
<polyline class="st0" points="16.4,123.3 16.4,114.1 21.3,114.1 21.3,123.3 "/>
<path class="st0" d="M16.4,114.2c0-1.4,1.1-2.4,2.5-2.4c1.4,0,2.4,1.1,2.4,2.4"/>
<line class="st0" x1="18.8" y1="111.7" x2="18.8" y2="107.5"/>
<polyline class="st0" points="178.4,141.6 178.4,132.4 180,132.4 187.8,132.4 187.8,141.6 "/>
<polyline class="st0" points="180,132.4 180,123 186,123 186,132 "/>
<polyline class="st0" points="180.6,123 180.6,113.8 185.4,113.8 185.4,123 "/>
<path class="st0" d="M185.5,113.8c0-1.4-1.1-2.4-2.5-2.4c-1.4,0-2.4,1.1-2.4,2.4V67.2h-9v57.2"/>
<line class="st0" x1="183" y1="111.3" x2="183" y2="107.2"/>
<polyline class="st0" points="171.6,67.2 171.6,62.4 180.6,62.4 180.6,67.8 "/>
<polyline class="st0" points="171.6,62.4 168.6,62.4 168.6,57.9 183.2,57.9 183.2,62.4 180.8,62.4 "/>
<polyline class="st0" points="171.6,57.9 171.6,43.7 180.6,43.7 180.6,57.9 "/>
<polyline class="st0" points="171.6,43.7 171.6,39.3 180.6,39.3 180.6,43.7 "/>
<polyline class="st0" points="171.6,39.3 176.1,25.2 180.6,39.3 "/>
<polyline class="st0" points="176.2,25.2 176.2,22.8 176.2,20.4 "/>
<polyline class="st0" points="30.7,124.6 30.7,72 21.7,72 21.9,123.3 "/>
<polyline class="st0" points="21.7,72 21.7,67.2 30.7,67.2 30.7,72.6 "/>
<polyline class="st0" points="21.7,67.2 18.8,67.2 18.8,62.7 33.3,62.7 33.3,67.2 30.9,67.2 "/>
<polyline class="st0" points="21.7,62.7 21.7,48.5 30.7,48.5 30.7,62.7 "/>
<polyline class="st0" points="21.7,48.5 21.7,44.1 30.7,44.1 30.7,48.5 "/>
<polyline class="st0" points="21.7,44.1 26.2,30 30.7,44.1 "/>
<line class="st0" x1="12.9" y1="171.3" x2="12.9" y2="198.4"/>
<polyline class="st0" points="26,30 26,27.6 26,25.2 "/>
</svg>
