<?xml version="1.0" encoding="utf-8"?>
<!-- Generator: Adobe Illustrator 24.3.0, SVG Export Plug-In . SVG Version: 6.00 Build 0)  -->
<svg version="1.1" id="Layer_2_1_" xmlns="http://www.w3.org/2000/svg" xmlns:xlink="http://www.w3.org/1999/xlink" x="0px" y="0px"
	 viewBox="0 0 198.4 198.4" style="enable-background:new 0 0 198.4 198.4;" xml:space="preserve">
<style type="text/css">
	.st0{fill:none;stroke:#FFFFFF;stroke-miterlimit:10;}
	.st1{fill:none;stroke:#FFFFFF;stroke-width:2;stroke-miterlimit:10;}
	.st2{fill:none;stroke:#FFFFFF;stroke-width:0.5;stroke-miterlimit:10;}
	.st3{fill:none;stroke:#FFFFFF;stroke-width:2;stroke-linejoin:bevel;}
</style>
<path class="st0" d="M70.3,128c-1.3,1.1-2.6,2.1-4.1,3"/>
<path class="st0" d="M78.5,117.3c-1.3,2.7-3,5.2-5,7.5"/>
<path class="st0" d="M78.8,116.7v0.1"/>
<path class="st0" d="M78.9,116.5c0,0.1-0.1,0.1-0.1,0.2"/>
<path class="st0" d="M82.5,102c-0.1,3.9-0.9,7.7-2.3,11.3"/>
<path class="st0" d="M80.7,89.5c0.7,2.1,1.2,4.2,1.5,6.3c0.1,1,0.2,1.9,0.3,2.9"/>
<path class="st0" d="M73.8,77.5c2,2.3,3.8,4.9,5.1,7.7"/>
<path class="st0" d="M73.3,77l0.1,0.1"/>
<path class="st0" d="M64,69.6c2,1.1,3.9,2.4,5.6,3.9"/>
<path class="st0" d="M50,65.3c2.6,0.3,5.2,0.8,7.7,1.6"/>
<path class="st0" d="M34.9,66.8c2.6-0.8,5.2-1.3,7.9-1.6"/>
<path class="st0" d="M22.3,73.8c1.8-1.6,3.9-3,6-4.2l0.8-0.4"/>
<path class="st0" d="M13.6,85.6c1.4-3.2,3.3-6.1,5.6-8.8"/>
<path class="st0" d="M10.5,99.2c0.1-3.5,0.7-7,1.8-10.3"/>
<path class="st0" d="M12.4,112.7c-1.1-3.3-1.8-6.7-1.9-10.2"/>
<path class="st0" d="M19.4,124.8c-2.4-2.7-4.3-5.7-5.8-9"/>
<line class="st0" x1="46.4" y1="66.6" x2="46.4" y2="128.6"/>
<line class="st0" x1="14.3" y1="100.9" x2="78.7" y2="100.9"/>
<line class="st0" x1="69.8" y1="124.3" x2="22.8" y2="77.3"/>
<line class="st0" x1="69.9" y1="77.4" x2="22.7" y2="124.6"/>
<path class="st0" d="M42.1,65.4c-0.1-0.2-0.2-0.4-0.2-0.7c0-1.2,2-2.2,4.5-2.2s4.5,1,4.5,2.2c0,1.2-2,2.2-4.5,2.2
	C44.4,66.9,42.7,66.3,42.1,65.4"/>
<path class="st0" d="M73.8,77.3c-0.6,0.1-1.2,0.2-1.8,0.2c-2.5,0-4.5-1-4.5-2.2s2-2.2,4.5-2.2s4.5,1,4.5,2.2
	C76.4,76.2,75.3,77,73.8,77.3"/>
<ellipse class="st0" cx="82.5" cy="100.3" rx="4.5" ry="2.2"/>
<ellipse class="st0" cx="20.9" cy="126.4" rx="4.5" ry="2.2"/>
<ellipse class="st0" cx="10.3" cy="100.9" rx="4.5" ry="2.2"/>
<ellipse class="st0" cx="20.9" cy="75.3" rx="4.5" ry="2.2"/>
<path class="st0" d="M57.3,66.8c1-0.5,2.1-0.7,3.3-0.7c2.5,0,4.5,1,4.5,2.2s-2,2.2-4.5,2.2s-4.5-1-4.5-2.2
	C56.1,67.7,56.6,67.2,57.3,66.8"/>
<path class="st0" d="M78.9,85.2c0.5-0.1,0.9-0.1,1.4-0.1c2.5,0,4.5,1,4.5,2.2s-1.8,2.1-4.1,2.2"/>
<path class="st0" d="M80.7,89.5h-0.4c-2.5,0-4.5-1-4.5-2.2c0-1,1.3-1.8,3.1-2.1"/>
<ellipse class="st0" cx="80.3" cy="115" rx="4.5" ry="2.2"/>
<ellipse class="st0" cx="71.9" cy="126.4" rx="4.5" ry="2.2"/>
<ellipse class="st0" cx="11.9" cy="114.4" rx="4.5" ry="2.2"/>
<path class="st0" d="M28.6,69.4c-0.3-0.3-0.6-0.7-0.6-1.1c0-1.2,2-2.2,4.5-2.2s4.5,1,4.5,2.2s-2,2.2-4.5,2.2
	C31.2,70.6,29.8,70.2,28.6,69.4"/>
<ellipse class="st0" cx="12.8" cy="87.3" rx="4.5" ry="2.2"/>
<line class="st1" x1="91.6" y1="49.4" x2="141" y2="49.4"/>
<path class="st1" d="M96.1,49.4c0,0,3.3-28.2,7.9-36.6"/>
<path class="st1" d="M104.4,49.4c0,0,0.8-30.9,8-43.8"/>
<path class="st1" d="M112.3,49.4c0,0,1.6-36.1,8-43.8"/>
<path class="st1" d="M120.3,49.4c0,0,0.8-34.9,6-39.6"/>
<path class="st1" d="M128.4,49.4c0,0-0.5-24,2.9-32.2"/>
<path class="st1" d="M136.2,49.8c0,0-1.1-13.4,0.4-18.7"/>
<path class="st1" d="M128.3,49.4c0,0-0.8-30.9-8-43.8"/>
<rect x="136.6" y="167.2" class="st0" width="9.4" height="7.2"/>
<rect x="148" y="167.3" class="st0" width="9.4" height="7.2"/>
<rect x="159.3" y="167.3" class="st0" width="9.4" height="7.2"/>
<path class="st0" d="M170.8,167.5h7.7c0,0,3.9,0,3.9,2.6v12.1h-3.9c0,0-1.4-2.8-7.7-2.8V167.5z"/>
<path class="st1" d="M120.3,49.4c0,0-1.6-36.1-8-43.8"/>
<rect x="136.6" y="176.7" class="st0" width="9.4" height="7.2"/>
<rect x="148" y="176.5" class="st0" width="9.4" height="7.2"/>
<path class="st1" d="M112.3,49.4c0,0-0.8-34.9-6-39.6"/>
<path class="st2" d="M104.3,49.4c0,0,11.2,41.1,42.9,82.6"/>
<path class="st1" d="M101.3,17.1c3.5,8.2,2.9,32.2,2.9,32.2"/>
<path class="st1" d="M148.4,131.9c-0.8-38.7-5.5-126.8-32-127S85,93.5,84.2,132.2"/>
<path class="st2" d="M112.3,49.4c0,0,9.5,34.6,35.8,72.7"/>
<circle class="st0" cx="131.9" cy="191.4" r="6.5"/>
<path class="st2" d="M120.3,49.4c0,0,7.4,27,27.2,59.5"/>
<path class="st2" d="M128.3,49.4c0,0,5.1,18.6,18.2,43.6"/>
<path class="st2" d="M96.1,47.7c0,0,11.5,42,44.2,84.4"/>
<path class="st2" d="M90.4,55.6c9.6,27.5,23.4,53.2,41,76.4"/>
<path class="st2" d="M88.2,63.9c9.2,24,21.4,46.8,36.1,67.9"/>
<path class="st2" d="M86.7,79.6c8.2,18.3,18.1,35.8,29.6,52.2"/>
<path class="st2" d="M85.7,94c6.6,13.1,14.2,25.8,22.7,37.8"/>
<path class="st2" d="M85.9,107.1c4.8,8.6,10.1,16.9,15.8,25"/>
<path class="st2" d="M84.5,119.9c2.5,4,5.2,7.9,8,11.9"/>
<path class="st2" d="M128.5,49.5c0,0-11.2,41.1-42.8,82.6"/>
<path class="st2" d="M120.4,49.5c0,0-9.5,34.6-35.8,72.7"/>
<path class="st2" d="M112.5,49.5c0,0-7.5,27-27.2,59.5"/>
<path class="st2" d="M104.5,49.5c0,0-5.1,18.7-18.2,43.6"/>
<path class="st2" d="M96.2,48.9c-2.2,7.3-4.8,14.5-7.8,21.5"/>
<path class="st2" d="M136.6,47.8c0,0-11.6,41.8-44.2,84"/>
<path class="st2" d="M142.3,55.7c-9.5,27.4-23.2,53.2-40.7,76.4"/>
<path class="st2" d="M144.6,64.1c-9.2,24-21.4,46.8-36.1,67.9"/>
<path class="st2" d="M146.1,79.8c-8.2,18.3-18.1,35.8-29.5,52.3"/>
<path class="st2" d="M147.1,94.1c-6.6,13.1-14.2,25.8-22.7,37.9"/>
<path class="st2" d="M150.1,102.4c-6.1,10.1-12.7,20-19.9,29.4"/>
<polyline class="st0" points="146.9,140 146.9,161.5 131.7,161.5 131.7,140 146.9,140 "/>
<line class="st0" x1="139.3" y1="140.5" x2="139.3" y2="162.1"/>
<line class="st0" x1="131.7" y1="150.7" x2="146.8" y2="150.7"/>
<path class="st2" d="M148.4,116.5c-3,5.1-6.2,10.2-9.6,15.3"/>
<path class="st0" d="M182.4,193.1h2.3V171c0-7.4-7.5-7.6-7.5-7.6h-51.9c-7.6,0-7.5,7.6-7.5,7.6v22.1h7.6"/>
<line class="st0" x1="178.3" y1="193.1" x2="182.4" y2="193.1"/>
<polyline class="st1" points="198,60.7 144.6,60.7 144.6,68 198,68 "/>
<path class="st0" d="M122.9,174.4v-3.6c-0.1-1.9,1.3-3.5,3.2-3.6c0.2,0,0.3,0,0.5,0h7.4v7.2H122.9z"/>
<path class="st1" d="M198,40.2c-30.6-0.1-53.5,20.5-53.5,20.5s1.1-21.8,31.8-29.2l2.1-0.5"/>
<path class="st3" d="M198,2.4c-6.9,6.7-7.6,24.8-7.6,24.8s-4.8-17.2-22.8-17c0,0,7.3,5.6,7.5,17C175.1,27.2,175.5,2.4,198,2.4"/>
<path class="st1" d="M182.8,27.2c0,0,1.4-15.2,13.7-24.4"/>
<rect x="175.1" y="27.3" class="st1" width="22.9" height="3.7"/>
<path class="st1" d="M198-1c-1.2,0-2.2,1-2.2,2.2s1,2.2,2.2,2.2"/>
<path class="st1" d="M190.4,27.2c0,0,2.7-8.1,8.7-13.7"/>
<polyline class="st1" points="198,76.4 151.3,76.4 151.3,162.6 "/>
<line class="st0" x1="110.5" y1="196.4" x2="110.5" y2="197.9"/>
<line class="st0" x1="110.5" y1="195.4" x2="110.5" y2="196.4"/>
<polyline class="st0" points="66.3,132 110.5,132 110.5,195.4 "/>
<polyline class="st0" points="0,128.3 66.5,128.3 66.5,159.1 "/>
<rect x="28.8" y="138.1" class="st0" width="7.9" height="12.2"/>
<rect x="41.4" y="138.1" class="st0" width="7.9" height="12.2"/>
<rect x="53.5" y="138.1" class="st0" width="7.9" height="12.2"/>
<rect x="29" y="156.6" class="st0" width="7.9" height="12.2"/>
<rect x="41.7" y="156.6" class="st0" width="7.9" height="12.2"/>
<rect x="53.7" y="156.6" class="st0" width="7.9" height="12.2"/>
<line class="st0" x1="108.2" y1="131.9" x2="148.4" y2="131.9"/>
<rect x="113.6" y="140" class="st0" width="15.1" height="21.6"/>
<line class="st0" x1="121.2" y1="140" x2="121.2" y2="161.5"/>
<line class="st0" x1="113.6" y1="151.4" x2="128.7" y2="151.4"/>
<rect x="29.1" y="175" class="st0" width="7.9" height="12.2"/>
<rect x="41.7" y="175" class="st0" width="7.9" height="12.2"/>
<rect x="53.8" y="175" class="st0" width="7.9" height="12.2"/>
<circle class="st0" cx="172.2" cy="191.4" r="6.5"/>
<rect x="122.9" y="176.7" class="st0" width="11" height="7.2"/>
<rect x="159.3" y="176.5" class="st0" width="9.4" height="7.2"/>
<line class="st0" x1="138.3" y1="192.6" x2="165.7" y2="192.6"/>
<rect x="4.2" y="138" class="st0" width="7.9" height="12.2"/>
<rect x="16.3" y="138" class="st0" width="7.9" height="12.2"/>
<rect x="4.5" y="156.6" class="st0" width="7.9" height="12.2"/>
<rect x="16.5" y="156.6" class="st0" width="7.9" height="12.2"/>
<rect x="4.5" y="175" class="st0" width="7.9" height="12.2"/>
<rect x="16.6" y="175" class="st0" width="7.9" height="12.2"/>
<rect x="72.4" y="136.9" class="st0" width="12.3" height="11.6"/>
<rect x="72.4" y="152.2" class="st0" width="12.3" height="11.6"/>
<rect x="72.4" y="167.3" class="st0" width="12.3" height="11.6"/>
<polyline class="st0" points="179.3,163.5 195,163.5 195,178.3 184.5,178.3 "/>
<rect x="72.4" y="182.3" class="st0" width="12.3" height="11.6"/>
<rect x="92.4" y="137.1" class="st0" width="12.3" height="11.6"/>
<rect x="92.4" y="152.4" class="st0" width="12.3" height="11.6"/>
<rect x="92.4" y="167.4" class="st0" width="12.3" height="11.6"/>
<rect x="92.4" y="182.4" class="st0" width="12.3" height="11.6"/>
<rect x="158.9" y="85.8" class="st0" width="15.7" height="14.8"/>
<rect x="158.9" y="105.3" class="st0" width="15.7" height="14.8"/>
<rect x="158.9" y="124.5" class="st0" width="15.7" height="14.8"/>
<rect x="158.9" y="143.6" class="st0" width="15.7" height="14.8"/>
<rect x="179.3" y="86" class="st0" width="15.7" height="14.8"/>
<rect x="179.3" y="105.5" class="st0" width="15.7" height="14.8"/>
<rect x="179.3" y="124.7" class="st0" width="15.7" height="14.8"/>
<rect x="179.3" y="143.8" class="st0" width="15.7" height="14.8"/>
<line class="st0" x1="66.5" y1="159.1" x2="66.9" y2="199.2"/>
<line class="st0" x1="148.4" y1="130.7" x2="148.4" y2="163.7"/>
<line class="st0" x1="148.4" y1="192.6" x2="148.4" y2="198.8"/>
</svg>
