<?xml version="1.0" encoding="utf-8"?>
<!-- Generator: Adobe Illustrator 24.3.0, SVG Export Plug-In . SVG Version: 6.00 Build 0)  -->
<svg version="1.1" id="Layer_2_1_" xmlns="http://www.w3.org/2000/svg" xmlns:xlink="http://www.w3.org/1999/xlink" x="0px" y="0px"
	 viewBox="0 0 198.4 198.4" style="enable-background:new 0 0 198.4 198.4;" xml:space="preserve">
<style type="text/css">
	.st0{fill:none;stroke:#FFFFFF;stroke-width:2;stroke-miterlimit:10;}
	.st1{fill:none;stroke:#FFFFFF;stroke-miterlimit:10;}
	.st2{fill:none;stroke:#FFFFFF;stroke-width:2;stroke-linejoin:round;}
</style>
<line class="st0" x1="198.7" y1="193.4" x2="198.7" y2="175.1"/>
<polygon class="st0" points="198.7,175.1 198.7,180.8 196.4,180.8 197.8,175.1 "/>
<path class="st0" d="M185.9,193.3H180v-2.7c0-0.7,0.2-1.5,0.4-2.1c0.2-0.8,0.8-1.4,1.6-1.7c4-1.1,7.4-1.4,8.3-5.9h8.3v12.6h-5.4
	h-0.5"/>
<line class="st0" x1="187" y1="193.3" x2="186.4" y2="193.3"/>
<path class="st0" d="M185.9,193.3c0.4-2,2.4-3.3,4.4-2.9c2,0.4,3.3,2.4,2.9,4.4c-0.4,2-2.4,3.3-4.4,2.9c-1.7-0.4-3-1.9-3-3.7
	C185.8,193.8,185.8,193.6,185.9,193.3"/>
<polyline class="st0" points="191,132.8 191,54.6 183.5,54.6 183.5,41 176.6,41 176.6,33.6 172.7,33.6 172.7,22.9 169.3,22.9
	169.3,15.1 "/>
<polyline class="st0" points="149.8,54.6 155.2,54.6 155.2,41 162.1,41 162.1,33.6 166,33.6 166,22.9 169.3,22.9 "/>
<line class="st0" x1="147.7" y1="54.6" x2="149.8" y2="54.6"/>
<line class="st0" x1="147.7" y1="111.5" x2="147.7" y2="110.6"/>
<rect x="159.1" y="44.2" class="st1" width="3.5" height="3.5"/>
<rect x="167.9" y="44.2" class="st1" width="3.5" height="3.5"/>
<rect x="176.7" y="44.2" class="st1" width="3.5" height="3.5"/>
<rect x="159.1" y="51.3" class="st1" width="3.5" height="3.5"/>
<rect x="167.9" y="51.3" class="st1" width="3.5" height="3.5"/>
<rect x="176.8" y="51.3" class="st1" width="3.5" height="3.5"/>
<rect x="167.9" y="37" class="st1" width="3.5" height="3.5"/>
<rect x="151.9" y="58.3" class="st1" width="3.5" height="3.5"/>
<rect x="159.1" y="58.3" class="st1" width="3.5" height="3.5"/>
<rect x="166.2" y="58.3" class="st1" width="3.5" height="3.5"/>
<polyline class="st1" points="151.9,65.4 155.4,65.4 155.4,68.9 152.9,68.9 "/>
<rect x="159.1" y="65.4" class="st1" width="3.5" height="3.5"/>
<rect x="166.2" y="65.4" class="st1" width="3.5" height="3.5"/>
<rect x="169.6" y="58.3" class="st1" width="3.5" height="3.5"/>
<rect x="176.8" y="58.3" class="st1" width="3.5" height="3.5"/>
<rect x="183.9" y="58.3" class="st1" width="3.5" height="3.5"/>
<rect x="169.6" y="65.4" class="st1" width="3.5" height="3.5"/>
<rect x="176.8" y="65.4" class="st1" width="3.5" height="3.5"/>
<rect x="183.9" y="65.4" class="st1" width="3.5" height="3.5"/>
<rect x="159" y="72.5" class="st1" width="3.5" height="3.5"/>
<rect x="166.1" y="72.5" class="st1" width="3.5" height="3.5"/>
<rect x="159.1" y="79.8" class="st1" width="3.5" height="3.5"/>
<rect x="166.2" y="79.8" class="st1" width="3.5" height="3.5"/>
<rect x="169.5" y="72.5" class="st1" width="3.5" height="3.5"/>
<rect x="176.7" y="72.5" class="st1" width="3.5" height="3.5"/>
<rect x="183.8" y="72.5" class="st1" width="3.5" height="3.5"/>
<rect x="169.6" y="79.8" class="st1" width="3.5" height="3.5"/>
<rect x="176.8" y="79.8" class="st1" width="3.5" height="3.5"/>
<rect x="183.9" y="79.8" class="st1" width="3.5" height="3.5"/>
<rect x="151.6" y="87" class="st1" width="3.5" height="3.5"/>
<rect x="158.9" y="87" class="st1" width="3.5" height="3.5"/>
<rect x="165.9" y="87" class="st1" width="3.5" height="3.5"/>
<rect x="151.7" y="94" class="st1" width="3.5" height="3.5"/>
<rect x="158.9" y="94" class="st1" width="3.5" height="3.5"/>
<rect x="166" y="94" class="st1" width="3.5" height="3.5"/>
<rect x="169.3" y="87" class="st1" width="3.5" height="3.5"/>
<rect x="176.6" y="87" class="st1" width="3.5" height="3.5"/>
<rect x="183.6" y="87" class="st1" width="3.5" height="3.5"/>
<rect x="169.4" y="94" class="st1" width="3.5" height="3.5"/>
<rect x="176.6" y="94" class="st1" width="3.5" height="3.5"/>
<rect x="183.7" y="94" class="st1" width="3.5" height="3.5"/>
<rect x="151.6" y="101.1" class="st1" width="3.5" height="3.5"/>
<rect x="158.8" y="101.1" class="st1" width="3.5" height="3.5"/>
<rect x="165.9" y="101.1" class="st1" width="3.5" height="3.5"/>
<rect x="169.3" y="101.1" class="st1" width="3.5" height="3.5"/>
<rect x="176.5" y="101.1" class="st1" width="3.5" height="3.5"/>
<rect x="183.6" y="101.1" class="st1" width="3.5" height="3.5"/>
<polyline class="st2" points="33.6,28.1 33.6,17.7 40,17.7 40,28.1 "/>
<polyline class="st2" points="26.8,34.9 26.8,28.1 46.5,28.1 46.5,34.9 "/>
<polyline class="st0" points="13.8,138.2 20.8,35.8 52.5,35.8 71.3,199.4 "/>
<line class="st0" x1="13.7" y1="139.2" x2="13.8" y2="138.2"/>
<line class="st2" x1="16.9" y1="150.2" x2="16.5" y2="152.3"/>
<polyline class="st2" points="71.3,199.2 33.5,35.8 16.9,150.2 "/>
<line class="st2" x1="36.8" y1="7.8" x2="36.8" y2="17.7"/>
<path class="st0" d="M26.8,199.4l-5.3-24.3l-1.3-5.7l-1.2-5.2l-1-4.5l-1.3-5.9l-0.1-0.4l-1.3-5.9l-1.1-5.2l-0.5-2.2l-0.1-0.5
	c-0.8-1.2-1.8-2.3-2.8-3.3l-10.2,7.9l-0.4,40L0,199.2l25.1,0.2L26.8,199.4z"/>
<polyline class="st0" points="110.4,136.3 133.8,136.3 133.8,185.7 "/>
<polyline class="st0" points="147.7,111.5 130.3,111.5 133.8,115.2 130.3,111.5 191,111.5 187.4,115.2 "/>
<polyline class="st0" points="187.4,185 187.4,115.2 133.8,115.2 133.8,136.3 116.3,136.3 116.3,79.8 159.1,79.8 158.8,111.5
	147.7,111.5 "/>
<line class="st0" x1="198.7" y1="132.8" x2="187.4" y2="132.8"/>
<rect x="137.6" y="122.3" class="st0" width="6.9" height="14"/>
<rect x="148.4" y="122.3" class="st0" width="6.9" height="14"/>
<rect x="165.7" y="122.3" class="st1" width="6.9" height="14"/>
<rect x="176.6" y="122.3" class="st1" width="6.9" height="14"/>
<rect x="165.8" y="140" class="st1" width="6.9" height="14"/>
<rect x="176.6" y="140" class="st1" width="6.9" height="14"/>
<rect x="165.8" y="157.6" class="st1" width="6.9" height="14"/>
<rect x="176.7" y="157.6" class="st1" width="6.9" height="14"/>
<polygon class="st0" points="137.7,129.3 140,129.3 155.3,129.3 155.3,136.3 140,136.3 137.6,136.3 "/>
<line class="st0" x1="146.4" y1="129.3" x2="146.4" y2="136.3"/>
<line class="st0" x1="150.2" y1="129.3" x2="150.2" y2="136.3"/>
<line class="st0" x1="151.9" y1="129.4" x2="151.9" y2="136.5"/>
<line class="st0" x1="153.5" y1="129.3" x2="153.5" y2="136.3"/>
<line class="st0" x1="139.4" y1="129.4" x2="139.4" y2="136.4"/>
<line class="st0" x1="141" y1="129.5" x2="141" y2="136.5"/>
<line class="st0" x1="142.7" y1="129.4" x2="142.7" y2="136.4"/>
<rect x="137.6" y="140" class="st0" width="6.9" height="14"/>
<rect x="148.4" y="140" class="st0" width="6.9" height="14"/>
<polygon class="st0" points="137.7,147.1 140,147.1 155.3,147.1 155.3,154.1 140,154.1 137.6,154.1 "/>
<line class="st0" x1="146.4" y1="147.1" x2="146.4" y2="154.1"/>
<line class="st0" x1="150.2" y1="147.1" x2="150.2" y2="154.1"/>
<line class="st0" x1="151.9" y1="147.2" x2="151.9" y2="154.2"/>
<line class="st0" x1="153.5" y1="147.1" x2="153.5" y2="154.1"/>
<line class="st0" x1="139.4" y1="147.1" x2="139.4" y2="154.1"/>
<line class="st0" x1="141" y1="147.3" x2="141" y2="154.3"/>
<line class="st0" x1="142.7" y1="147.1" x2="142.7" y2="154.1"/>
<rect x="137.6" y="157.8" class="st0" width="6.9" height="14"/>
<rect x="148.4" y="157.8" class="st0" width="6.9" height="14"/>
<polygon class="st0" points="137.7,164.8 140,164.8 155.3,164.8 155.3,171.8 140,171.8 137.6,171.8 "/>
<line class="st0" x1="146.4" y1="164.8" x2="146.4" y2="171.8"/>
<line class="st0" x1="150.2" y1="164.8" x2="150.2" y2="171.8"/>
<line class="st0" x1="151.9" y1="164.9" x2="151.9" y2="171.9"/>
<line class="st0" x1="153.5" y1="164.8" x2="153.5" y2="171.8"/>
<line class="st0" x1="139.4" y1="164.9" x2="139.4" y2="171.9"/>
<line class="st0" x1="141" y1="165" x2="141" y2="172"/>
<line class="st0" x1="142.7" y1="164.9" x2="142.7" y2="171.9"/>
<line class="st0" x1="137.6" y1="171.8" x2="155.3" y2="154.1"/>
<line class="st0" x1="137.6" y1="154.1" x2="155.3" y2="136.3"/>
<line class="st0" x1="155.3" y1="171.8" x2="148.4" y2="178"/>
<line class="st0" x1="110.8" y1="140" x2="133.8" y2="140"/>
<polygon class="st1" points="123.4,143.6 130.3,143.6 130.3,147.1 123.4,147 "/>
<polygon class="st1" points="112.9,143.6 119.8,143.6 119.8,147.1 112.9,147 "/>
<rect x="123.4" y="150.8" class="st1" width="7" height="7"/>
<rect x="112.8" y="150.6" class="st1" width="7" height="7"/>
<rect x="123.3" y="161.4" class="st1" width="7" height="7"/>
<rect x="123.3" y="172.1" class="st1" width="7" height="7"/>
<polyline class="st0" points="187.4,136.5 191,136.5 198.7,136.3 "/>
<line class="st0" x1="191" y1="180.8" x2="191" y2="136.5"/>
<polyline class="st0" points="198.7,140 194.6,140 194.6,157.6 198.7,157.6 "/>
<polyline class="st0" points="198.7,164.9 194.6,164.9 194.6,180.8 "/>
<polygon class="st0" points="123.4,65.4 116.3,79.8 159.1,79.8 151.9,65.4 "/>
<polygon class="st0" points="123.4,58.3 123.4,65.4 151.9,65.4 151.9,58.3 "/>
<line class="st0" x1="119.7" y1="79.8" x2="119.8" y2="136.5"/>
<line class="st0" x1="116.3" y1="83.2" x2="159.1" y2="83.2"/>
<line class="st0" x1="155.4" y1="79.8" x2="155.3" y2="111"/>
<polyline class="st1" points="151.6,111 151.6,87 123.4,87 123.4,136.3 "/>
<line class="st1" x1="130.3" y1="136.3" x2="130.4" y2="87"/>
<line class="st1" x1="137.7" y1="111.5" x2="137.7" y2="87"/>
<line class="st1" x1="144.5" y1="111" x2="144.5" y2="87"/>
<line class="st1" x1="123.4" y1="90.4" x2="151.6" y2="90.4"/>
<line class="st1" x1="123.4" y1="94" x2="151.7" y2="94"/>
<line class="st1" x1="123.4" y1="97.6" x2="151.7" y2="97.5"/>
<line class="st1" x1="123.4" y1="101.1" x2="151.6" y2="101.1"/>
<line class="st1" x1="123.4" y1="104.6" x2="151.6" y2="104.6"/>
<line class="st1" x1="123.4" y1="107.6" x2="151.6" y2="107.6"/>
<line class="st1" x1="123.4" y1="111" x2="130.3" y2="111"/>
<line class="st1" x1="123.4" y1="114.8" x2="130.3" y2="114.8"/>
<line class="st1" x1="123.4" y1="118.6" x2="130.3" y2="118.6"/>
<line class="st1" x1="123.1" y1="122.3" x2="130.3" y2="122.3"/>
<line class="st1" x1="123.4" y1="125.9" x2="130.3" y2="125.9"/>
<line class="st1" x1="123.4" y1="129.3" x2="130.4" y2="129.3"/>
<line class="st1" x1="123.4" y1="133" x2="130.3" y2="133"/>
<polyline class="st0" points="91.3,180.8 92.7,175.1 94.7,175.1 95.8,180.8 "/>
<circle class="st0" cx="84.4" cy="194.1" r="3.8"/>
<circle class="st0" cx="108" cy="194.1" r="3.8"/>
<line class="st0" x1="104.9" y1="193.5" x2="86.9" y2="193.4"/>
<path class="st0" d="M82,193.4h-7.1l0.7-3c0,0,0.2-3.3,2-3.8c4-1.1,7.4-1.4,8.3-5.9H101l3.4,6.4h10c0,0,1.6,0.6,2.3,6.7h-6.1"/>
<polyline class="st0" points="144.5,180.8 145.9,175.1 147.9,175.1 148.9,180.8 "/>
<line class="st0" x1="157.8" y1="193.4" x2="140.1" y2="193.3"/>
<line class="st0" x1="158.6" y1="193.4" x2="158.4" y2="193.4"/>
<path class="st0" d="M135.3,193.3H128v-2.7c0,0,0.1-3.3,2-3.8c4-1.1,7.4-1.4,8.3-5.9h15.1l3.4,6.4h10c0,0,1.6,0.6,3.1,6.4h-5.5"/>
<circle class="st0" cx="137.6" cy="194.1" r="3.8"/>
<circle class="st0" cx="161.1" cy="194.1" r="3.8"/>
<polyline class="st0" points="88.4,120.2 65.9,120.2 68.7,123.2 65.9,120.2 113.8,120.2 110.9,123.2 "/>
<polyline class="st0" points="110.4,187.1 110.4,122.8 69.3,122.8 69.3,143.6 "/>
<line class="st0" x1="109.7" y1="191.7" x2="109.7" y2="191.7"/>
<line class="st0" x1="121" y1="140" x2="109.7" y2="140"/>
<rect x="86.9" y="129.5" class="st1" width="6.9" height="14"/>
<rect x="98.3" y="129.5" class="st1" width="6.9" height="14"/>
<line class="st0" x1="69.3" y1="143.6" x2="69.9" y2="187.1"/>
<rect x="74.9" y="129.4" class="st1" width="6.9" height="14"/>
<rect x="86.9" y="146.9" class="st1" width="6.9" height="14"/>
<rect x="98.3" y="146.9" class="st1" width="6.9" height="14"/>
<rect x="74.9" y="146.8" class="st1" width="6.9" height="14"/>
<polyline class="st1" points="93,178 86.7,178 86.7,163.9 93.6,163.9 93.6,176.4 "/>
<rect x="98.1" y="163.9" class="st1" width="6.9" height="14"/>
<rect x="74.7" y="163.8" class="st1" width="6.9" height="14"/>
<rect x="112.8" y="161.1" class="st1" width="7" height="7"/>
<rect x="112.8" y="172.1" class="st1" width="7" height="7"/>
<line class="st0" x1="147.7" y1="53.6" x2="147.7" y2="57.6"/>
</svg>
