<svg id="Layer_2" data-name="Layer 2" xmlns="http://www.w3.org/2000/svg" viewBox="0 0 198.43 198.43"><defs><style>.cls-1{fill:#fff;}.cls-2,.cls-3{fill:none;stroke:#231f20;stroke-miterlimit:10;}.cls-2{stroke-width:2px;}</style></defs><path class="cls-1" d="M128.06,86s-5.94-9.52,4.85-20.82l3.68-5L140.45,53,142,49.17l.38-2.28-2-1.13-.6-1.74,1-1.6,1.11-.61-1.11-1.4.45-1.27.88-.55h1.18l.6.85.17,1-.73,1.16-.3.24,1,.51.78,1.31v1.46l-1.27,1.29-.86.3,0,1.5,1.18,3.76L146,56.47l2.45,4,3.69,5,3.2,4.27,1.28,2.23-4.7,10.13-22.64,5.48Z"/><rect class="cls-2" x="127.89" y="95.3" width="28.74" height="102.45"/><polyline class="cls-2" points="156.64 95.3 161.27 90.67 123.3 90.7 127.89 95.3"/><path class="cls-2" d="M161.27,90.67,156.62,86s5.75-8.4-4-19.8-10.37-19.44-10.37-19.44"/><path class="cls-2" d="M123.3,90.67,128,86s-5.75-8.4,4-19.8S142.3,46.79,142.3,46.79"/><circle class="cls-2" cx="142.28" cy="44.33" r="2.46"/><circle class="cls-2" cx="142.3" cy="40.23" r="1.64"/><rect class="cls-3" x="134.34" y="69.54" width="15.93" height="12.05"/><line class="cls-3" x1="156.62" y1="86.03" x2="127.95" y2="86.03"/><line class="cls-3" x1="127.89" y1="125.24" x2="156.64" y2="125.24"/><rect class="cls-3" x="132.8" y="100.44" width="19.49" height="19.49"/><line class="cls-3" x1="127.89" y1="129.69" x2="156.64" y2="129.69"/><line class="cls-3" x1="133.02" y1="125.24" x2="133.02" y2="129.69"/><line class="cls-3" x1="137.85" y1="125.24" x2="137.85" y2="129.69"/><line class="cls-3" x1="135.43" y1="125.24" x2="135.43" y2="129.69"/><line class="cls-3" x1="142.78" y1="125.24" x2="142.78" y2="129.69"/><line class="cls-3" x1="147.61" y1="125.24" x2="147.61" y2="129.69"/><line class="cls-3" x1="140.37" y1="125.24" x2="140.37" y2="129.69"/><line class="cls-3" x1="145.2" y1="125.24" x2="145.2" y2="129.69"/><circle class="cls-3" cx="142.55" cy="110.18" r="9.74"/><rect class="cls-3" x="133.02" y="134.62" width="18.69" height="24.12"/><rect class="cls-3" x="176.04" y="153.3" width="18.69" height="10.08"/><rect class="cls-3" x="178.72" y="155.63" width="13.34" height="5.41"/><polyline class="cls-3" points="139.29 158.74 139.29 154.12 145.2 154.12 145.2 158.74"/><polyline class="cls-3" points="139.14 154.12 137.85 154.12 137.85 139.42 146.56 139.42 146.56 154.12 144.41 154.12"/><circle class="cls-3" cx="142.55" cy="110.27" r="5.98"/><polyline class="cls-3" points="11.92 148.92 11.92 198.08 128.14 198.08"/><rect class="cls-3" x="19.93" y="123.98" width="18.22" height="18.22" transform="translate(58.08 266.19) rotate(-180)"/><line class="cls-3" x1="11.92" y1="148.92" x2="19.93" y2="126.93"/><line class="cls-2" x1="38.15" y1="126.93" x2="66.06" y2="126.93"/><polyline class="cls-3" points="20.21 123.98 17.36 121.13 40.74 121.16 37.91 123.98"/><path class="cls-3" d="M17.36,121.13l2.86-2.86s-3.54-5.16,2.45-12.18,6.39-12,6.39-12"/><path class="cls-3" d="M40.74,121.13l-2.86-2.86s3.54-5.16-2.45-12.18-6.39-12-6.39-12"/><circle class="cls-3" cx="29.05" cy="92.6" r="1.51"/><circle class="cls-3" cx="29.04" cy="90.07" r="1.01"/><rect class="cls-3" x="24.14" y="108.12" width="9.81" height="7.42" transform="translate(58.08 223.66) rotate(-180)"/><line class="cls-3" x1="20.22" y1="118.27" x2="37.88" y2="118.27"/><rect class="cls-3" x="24.18" y="129.16" width="9.72" height="9.72" transform="translate(58.08 268.05) rotate(-180)"/><line class="cls-3" x1="66.06" y1="153.58" x2="11.92" y2="153.58"/><rect class="cls-3" x="57.88" y="139.18" width="4.84" height="4.67" transform="translate(120.61 283.02) rotate(-180)"/><polyline class="cls-3" points="62.72 139.18 60.22 136.68 57.88 139.01"/><rect class="cls-3" x="49.14" y="139.18" width="4.84" height="4.67" transform="translate(103.12 283.02) rotate(-180)"/><polyline class="cls-3" points="53.98 139.18 51.48 136.67 49.14 139.01"/><line class="cls-3" x1="128.14" y1="183.14" x2="11.92" y2="183.14"/><line class="cls-3" x1="128.14" y1="163.42" x2="11.92" y2="163.42"/><line class="cls-3" x1="64.14" y1="153.58" x2="64.14" y2="163.42"/><line class="cls-3" x1="54.06" y1="153.58" x2="54.06" y2="163.42"/><line class="cls-3" x1="49.22" y1="153.58" x2="49.22" y2="163.42"/><line class="cls-3" x1="39.73" y1="153.58" x2="39.73" y2="163.42"/><line class="cls-3" x1="34.89" y1="153.58" x2="34.89" y2="163.42"/><line class="cls-3" x1="24.77" y1="153.58" x2="24.77" y2="163.42"/><rect class="cls-3" x="55.79" y="155.2" width="6.61" height="6.61" transform="translate(118.2 317) rotate(-180)"/><rect class="cls-3" x="41.17" y="155.2" width="6.61" height="6.61" transform="translate(88.95 317) rotate(-180)"/><rect class="cls-3" x="26.52" y="155.2" width="6.61" height="6.61" transform="translate(59.66 317) rotate(-180)"/><line class="cls-3" x1="128.14" y1="168.46" x2="11.92" y2="168.46"/><line class="cls-3" x1="128.14" y1="183.14" x2="11.92" y2="183.14"/><line class="cls-3" x1="64.14" y1="168.46" x2="64.14" y2="183.14"/><line class="cls-3" x1="54.06" y1="168.46" x2="54.06" y2="183.14"/><line class="cls-3" x1="49.22" y1="168.46" x2="49.22" y2="183.14"/><line class="cls-3" x1="39.73" y1="168.46" x2="39.73" y2="183.14"/><line class="cls-3" x1="34.89" y1="168.46" x2="34.89" y2="183.14"/><rect class="cls-3" x="55.79" y="170.87" width="6.61" height="9.87" transform="translate(118.2 351.6) rotate(-180)"/><rect class="cls-3" x="41.17" y="170.87" width="6.61" height="9.87" transform="translate(88.95 351.6) rotate(-180)"/><rect class="cls-3" x="26.52" y="170.87" width="6.61" height="9.87" transform="translate(59.66 351.6) rotate(-180)"/><line class="cls-3" x1="163.15" y1="168.26" x2="156.54" y2="168.26"/><line class="cls-3" x1="59.1" y1="170.87" x2="59.1" y2="180.73"/><line class="cls-3" x1="62.4" y1="174.12" x2="55.79" y2="174.12"/><line class="cls-3" x1="62.4" y1="177.31" x2="55.79" y2="177.31"/><line class="cls-3" x1="44.46" y1="170.87" x2="44.46" y2="180.73"/><line class="cls-3" x1="47.76" y1="174.12" x2="41.15" y2="174.12"/><line class="cls-3" x1="47.76" y1="177.31" x2="41.15" y2="177.31"/><line class="cls-3" x1="29.83" y1="170.87" x2="29.83" y2="180.73"/><line class="cls-3" x1="33.13" y1="174.12" x2="26.52" y2="174.12"/><line class="cls-3" x1="33.13" y1="177.31" x2="26.52" y2="177.31"/><line class="cls-3" x1="24.77" y1="168.46" x2="24.77" y2="183.14"/><rect class="cls-3" x="59.01" y="187.81" width="5" height="5" transform="translate(123.02 380.62) rotate(-180)"/><rect class="cls-3" x="49.09" y="187.81" width="5" height="5" transform="translate(103.18 380.62) rotate(-180)"/><rect class="cls-3" x="39.48" y="187.81" width="5" height="5" transform="translate(83.95 380.62) rotate(-180)"/><rect class="cls-3" x="29.56" y="187.81" width="5" height="5" transform="translate(64.12 380.62) rotate(-180)"/><rect class="cls-3" x="19.77" y="187.81" width="5" height="5" transform="translate(44.54 380.62) rotate(-180)"/><rect class="cls-2" x="84.26" y="11.93" width="17.48" height="32.18"/><polyline class="cls-2" points="101.75 8.45 101.75 11.93 95.5 1.45 90.71 1.45 84.26 11.93 84.26 8.45"/><rect class="cls-3" x="87.49" y="16.58" width="1.78" height="9.14"/><rect class="cls-3" x="92.07" y="16.58" width="1.78" height="9.14"/><rect class="cls-3" x="96.73" y="16.58" width="1.78" height="9.14"/><circle class="cls-3" cx="93" cy="32.81" r="4.62"/><polyline class="cls-3" points="93 30.68 93 32.81 94.97 34.78"/><polyline class="cls-2" points="84.26 44.11 81.88 44.11 81.88 48.57 104.03 48.57 104.03 44.11 101.75 44.11"/><polyline class="cls-2" points="81.88 48.57 81.88 84.6 104.03 84.6 104.03 48.57"/><polyline class="cls-3" points="81.88 67 104.03 67 104.03 71.46 81.88 71.46"/><line class="cls-3" x1="84.01" y1="71.72" x2="84.01" y2="84.6"/><line class="cls-3" x1="86.21" y1="71.46" x2="86.21" y2="84.35"/><line class="cls-3" x1="88.39" y1="71.46" x2="88.39" y2="84.35"/><line class="cls-3" x1="90.76" y1="71.59" x2="90.76" y2="84.48"/><line class="cls-3" x1="92.96" y1="71.72" x2="92.96" y2="84.6"/><line class="cls-3" x1="95.14" y1="71.72" x2="95.14" y2="84.6"/><line class="cls-3" x1="97.7" y1="71.72" x2="97.7" y2="84.6"/><line class="cls-3" x1="99.9" y1="71.46" x2="99.9" y2="84.35"/><line class="cls-3" x1="102.09" y1="71.46" x2="102.09" y2="84.35"/><rect class="cls-3" x="85.33" y="53.21" width="1.78" height="9.14"/><rect class="cls-3" x="89.91" y="53.21" width="1.78" height="9.14"/><rect class="cls-3" x="94.57" y="53.21" width="1.78" height="9.14"/><rect class="cls-3" x="98.89" y="53.21" width="1.78" height="9.14"/><polyline class="cls-2" points="61.51 88.53 120.46 88.53 120.46 84.6 94.66 84.6"/><line class="cls-2" x1="81.88" y1="84.6" x2="65.49" y2="84.6"/><line class="cls-2" x1="65.49" y1="84.6" x2="65.49" y2="80.25"/><line class="cls-2" x1="70.3" y1="84.6" x2="70.3" y2="80.25"/><line class="cls-2" x1="74.95" y1="84.6" x2="74.95" y2="80.25"/><line class="cls-2" x1="79.4" y1="84.6" x2="79.4" y2="80.25"/><line class="cls-2" x1="106.65" y1="84.6" x2="106.65" y2="80.25"/><line class="cls-2" x1="111.17" y1="84.6" x2="111.17" y2="80.25"/><line class="cls-2" x1="115.56" y1="84.6" x2="115.56" y2="80.25"/><line class="cls-2" x1="120.46" y1="84.6" x2="120.46" y2="80.25"/><line class="cls-2" x1="118.19" y1="198.75" x2="118.19" y2="89.4"/><line class="cls-2" x1="66.63" y1="87.53" x2="66.63" y2="163.72"/><line class="cls-3" x1="66.63" y1="93.67" x2="118.19" y2="93.67"/><line class="cls-3" x1="67.71" y1="116.62" x2="118.19" y2="116.62"/><line class="cls-3" x1="67.71" y1="123.53" x2="118.19" y2="123.53"/><rect class="cls-3" x="71.46" y="104.45" width="4.43" height="8.97"/><rect class="cls-3" x="110.12" y="96.87" width="4.43" height="4.43"/><rect class="cls-3" x="110.12" y="104.45" width="4.43" height="8.97"/><rect class="cls-3" x="92.09" y="96.91" width="2.22" height="4.43"/><rect class="cls-3" x="92.09" y="104.5" width="2.22" height="8.97"/><rect class="cls-3" x="96.73" y="96.96" width="2.22" height="4.43"/><rect class="cls-3" x="96.73" y="104.54" width="2.22" height="8.97"/><rect class="cls-3" x="101.28" y="96.91" width="2.22" height="4.43"/><rect class="cls-3" x="101.28" y="104.5" width="2.22" height="8.97"/><rect class="cls-3" x="72.08" y="118.56" width="3.18" height="3.18"/><rect class="cls-3" x="82.41" y="118.6" width="3.18" height="3.18"/><rect class="cls-3" x="88.42" y="118.6" width="3.18" height="3.18"/><rect class="cls-3" x="94.43" y="118.52" width="3.18" height="3.18"/><rect class="cls-3" x="99.96" y="118.52" width="3.18" height="3.18"/><rect class="cls-3" x="110.75" y="118.6" width="3.18" height="3.18"/><rect class="cls-3" x="72" y="125.39" width="3.18" height="3.18"/><rect class="cls-3" x="82.33" y="125.43" width="3.18" height="3.18"/><rect class="cls-3" x="88.34" y="125.43" width="3.18" height="3.18"/><rect class="cls-3" x="94.34" y="125.35" width="3.18" height="3.18"/><rect class="cls-3" x="99.88" y="125.35" width="3.18" height="3.18"/><rect class="cls-3" x="110.67" y="125.43" width="3.18" height="3.18"/><rect class="cls-3" x="72" y="130.55" width="3.18" height="3.18"/><rect class="cls-3" x="82.33" y="130.59" width="3.18" height="3.18"/><rect class="cls-3" x="88.34" y="130.59" width="3.18" height="3.18"/><rect class="cls-3" x="94.34" y="130.51" width="3.18" height="3.18"/><rect class="cls-3" x="99.88" y="130.51" width="3.18" height="3.18"/><rect class="cls-3" x="110.67" y="130.59" width="3.18" height="3.18"/><rect class="cls-3" x="72" y="135.78" width="3.18" height="3.18"/><rect class="cls-3" x="82.33" y="135.82" width="3.18" height="3.18"/><rect class="cls-3" x="88.34" y="135.82" width="3.18" height="3.18"/><rect class="cls-3" x="94.34" y="135.74" width="3.18" height="3.18"/><rect class="cls-3" x="99.88" y="135.74" width="3.18" height="3.18"/><rect class="cls-3" x="110.67" y="135.82" width="3.18" height="3.18"/><rect class="cls-3" x="72.03" y="141.09" width="3.18" height="3.18"/><rect class="cls-3" x="82.35" y="141.13" width="3.18" height="3.18"/><rect class="cls-3" x="88.36" y="141.13" width="3.18" height="3.18"/><rect class="cls-3" x="94.37" y="141.05" width="3.18" height="3.18"/><rect class="cls-3" x="99.91" y="141.05" width="3.18" height="3.18"/><rect class="cls-3" x="110.69" y="141.13" width="3.18" height="3.18"/><rect class="cls-3" x="72.03" y="146.25" width="3.18" height="3.18"/><rect class="cls-3" x="82.35" y="146.29" width="3.18" height="3.18"/><rect class="cls-3" x="88.36" y="146.29" width="3.18" height="3.18"/><rect class="cls-3" x="94.37" y="146.21" width="3.18" height="3.18"/><rect class="cls-3" x="99.91" y="146.21" width="3.18" height="3.18"/><rect class="cls-3" x="110.69" y="146.29" width="3.18" height="3.18"/><rect class="cls-3" x="72.03" y="151.48" width="3.18" height="3.18"/><rect class="cls-3" x="82.35" y="151.52" width="3.18" height="3.18"/><rect class="cls-3" x="88.36" y="151.52" width="3.18" height="3.18"/><rect class="cls-3" x="94.37" y="151.44" width="3.18" height="3.18"/><rect class="cls-3" x="99.91" y="151.44" width="3.18" height="3.18"/><rect class="cls-3" x="110.69" y="151.52" width="3.18" height="3.18"/><rect class="cls-3" x="71.89" y="156.79" width="3.18" height="3.18"/><rect class="cls-3" x="82.21" y="156.83" width="3.18" height="3.18"/><rect class="cls-3" x="88.22" y="156.83" width="3.18" height="3.18"/><rect class="cls-3" x="94.23" y="156.75" width="3.18" height="3.18"/><rect class="cls-3" x="99.77" y="156.75" width="3.18" height="3.18"/><rect class="cls-3" x="110.55" y="156.83" width="3.18" height="3.18"/><rect class="cls-3" x="71.98" y="172.49" width="3.18" height="3.18"/><rect class="cls-3" x="94.32" y="172.45" width="3.18" height="3.18"/><rect class="cls-3" x="99.86" y="172.45" width="3.18" height="3.18"/><rect class="cls-3" x="110.64" y="172.52" width="3.18" height="3.18"/><rect class="cls-3" x="71.98" y="177.64" width="3.18" height="3.18"/><rect class="cls-3" x="94.32" y="177.61" width="3.18" height="3.18"/><rect class="cls-3" x="99.86" y="177.61" width="3.18" height="3.18"/><rect class="cls-3" x="110.64" y="177.68" width="3.18" height="3.18"/><rect class="cls-3" x="72.03" y="186.23" width="3.18" height="3.18"/><rect class="cls-3" x="82.35" y="186.27" width="3.18" height="3.18"/><rect class="cls-3" x="88.36" y="186.27" width="3.18" height="3.18"/><rect class="cls-3" x="94.37" y="186.2" width="3.18" height="3.18"/><rect class="cls-3" x="99.91" y="186.2" width="3.18" height="3.18"/><rect class="cls-3" x="110.69" y="186.27" width="3.18" height="3.18"/><rect class="cls-3" x="72.03" y="191.39" width="3.18" height="3.18"/><rect class="cls-3" x="82.35" y="191.43" width="3.18" height="3.18"/><rect class="cls-3" x="88.36" y="191.43" width="3.18" height="3.18"/><rect class="cls-3" x="94.37" y="191.35" width="3.18" height="3.18"/><rect class="cls-3" x="99.91" y="191.35" width="3.18" height="3.18"/><rect class="cls-3" x="110.69" y="191.43" width="3.18" height="3.18"/><line class="cls-3" x1="159.36" y1="168.22" x2="198.43" y2="168.22"/><line class="cls-3" x1="156.54" y1="182.21" x2="198.43" y2="182.21"/><line class="cls-3" x1="157.14" y1="186.7" x2="198.43" y2="186.7"/><rect class="cls-3" x="158.65" y="171.23" width="4.58" height="9.1"/><rect class="cls-3" x="166.68" y="171.16" width="4.58" height="9.1"/><rect class="cls-3" x="174.8" y="171.16" width="4.58" height="9.1"/><rect class="cls-3" x="162.48" y="189.91" width="3.18" height="3.18"/><rect class="cls-3" x="168.49" y="189.91" width="3.18" height="3.18"/><rect class="cls-3" x="174.49" y="189.84" width="3.18" height="3.18"/><rect class="cls-3" x="180.03" y="189.84" width="3.18" height="3.18"/><rect class="cls-3" x="162.48" y="195.06" width="3.18" height="2.68"/><rect class="cls-3" x="168.49" y="195.06" width="3.18" height="2.68"/><rect class="cls-3" x="174.49" y="195" width="3.18" height="2.68"/><rect class="cls-3" x="180.03" y="195" width="3.18" height="2.68"/><rect class="cls-3" x="185.39" y="189.88" width="3.18" height="3.18"/><rect class="cls-3" x="185.39" y="195.03" width="3.18" height="2.68"/><line class="cls-3" x1="88.38" y1="39.37" x2="88.38" y2="44.11"/><line class="cls-3" x1="93" y1="39.37" x2="93" y2="44.11"/><line class="cls-3" x1="97.63" y1="39.37" x2="97.63" y2="44.11"/><line class="cls-3" x1="90.81" y1="39.37" x2="90.81" y2="44.11"/><line class="cls-3" x1="95.43" y1="39.37" x2="95.43" y2="44.11"/><line class="cls-3" x1="100.05" y1="39.37" x2="100.05" y2="44.11"/><line class="cls-3" x1="86.22" y1="39.37" x2="86.22" y2="44.11"/><line class="cls-3" x1="156.49" y1="163.8" x2="198.43" y2="163.8"/><polyline class="cls-2" points="0 15.1 12.9 15.1 12.9 42.69 18.07 42.69 18.07 34.8 30.95 34.8 30.95 56.49 35.94 56.49 35.94 15.1 55.48 15.1 55.48 62.36 60.49 62.36 60.49 44.13 73.74 44.13 73.74 71.46 78.8 71.46 78.8 51.19 81.88 51.19"/><polyline class="cls-2" points="0 59.47 5.38 59.47 5.38 71.72 9.87 71.72 9.87 55.28 22.61 55.28 22.61 74.88"/><polyline class="cls-2" points="22.61 67.44 34.16 67.44 34.16 78.08 39.83 78.08 39.83 71.38 60.91 71.38 60.91 84.49 67.64 84.49 67.64 78.08 81.88 78.08"/><rect class="cls-3" x="183.1" y="171.23" width="4.58" height="9.1"/><rect class="cls-3" x="190.96" y="171.16" width="4.58" height="9.1"/><rect class="cls-3" x="82.78" y="96.91" width="2.22" height="4.43"/><rect class="cls-3" x="82.78" y="104.5" width="2.22" height="8.97"/><rect class="cls-3" x="87.42" y="96.96" width="2.22" height="4.43"/><rect class="cls-3" x="87.42" y="104.54" width="2.22" height="8.97"/><rect class="cls-3" x="71.46" y="97.1" width="4.43" height="4.43"/><line class="cls-2" x1="61.51" y1="89.49" x2="61.51" y2="84.6"/><line class="cls-2" x1="117.66" y1="126.93" x2="128.14" y2="126.93"/><line class="cls-3" x1="128.71" y1="153.58" x2="118.19" y2="153.58"/><rect class="cls-3" x="82.95" y="172.49" width="3.18" height="3.18"/><rect class="cls-3" x="88.49" y="172.49" width="3.18" height="3.18"/><rect class="cls-3" x="82.95" y="177.64" width="3.18" height="3.18"/><rect class="cls-3" x="88.49" y="177.64" width="3.18" height="3.18"/><polyline class="cls-2" points="198.08 6.6 183.26 6.6 183.26 34.19 177.32 34.19 177.32 26.31 162.53 26.31 162.53 47.99 156.79 47.99 156.79 6.6 134.35 6.6 134.35 53.86 128.6 53.86 128.6 35.63 113.38 35.63 113.38 62.97 107.56 62.97 107.56 42.7 104.03 42.7"/><rect class="cls-3" x="133.02" y="166.78" width="18.69" height="24.12"/><polyline class="cls-3" points="139.29 190.9 139.29 186.28 145.2 186.28 145.2 190.9"/><polyline class="cls-3" points="139.14 186.28 137.85 186.28 137.85 171.58 146.56 171.58 146.56 186.28 144.41 186.28"/><polyline class="cls-2" points="198.6 60.2 190.39 60.2 190.39 70.85 186.36 70.85 186.36 64.15 171.38 64.15 171.38 77.25 166.61 77.25 166.61 70.85 156.49 70.85"/></svg>
