<svg id="Layer_1" data-name="Layer 1" xmlns="http://www.w3.org/2000/svg" viewBox="0 0 1894.1 4711.2"><defs><style>.cls-1{fill:#fcd1ed;}</style></defs><g id="Layer_2" data-name="Layer 2"><g id="Layer_1-2" data-name="Layer 1-2"><path class="cls-1" d="M739.9,759.5s-77.5-26.1-43.2,52.4S835.4,903.2,807,839.2,739.9,759.5,739.9,759.5Z" transform="translate(0)"/><path class="cls-1" d="M1620.7,2898.3c-62.6,2.9-197-100.9-281.4-38.7s-133.5,166.5-358.1,77.1S655.8,2999,655.8,2999s-351.5,227-355.2,39.8C297.8,2895.6,95,2831.3,0,2809v58.5c9.9,5.9,21.1,12.3,33.8,19.3,159.6,87.4,114.1,194.6,215.9,215.7s173.4,96.7,332.3,0,130.6-70.2,366.2-33.9,357-82.7,500.2-131.8c108.9-37.3,340.6,51.7,445.6,96.6V2813.8C1816.7,2919,1678.9,2895.7,1620.7,2898.3Z" transform="translate(0)"/><path class="cls-1" d="M481.6,861.3c11-231.3,225.2-137,417.2-323.3C1038.2,402.8,1004.6,203,773.7,0H0V1094.8C184.2,1117.4,473.7,1027.4,481.6,861.3Z" transform="translate(0)"/><path class="cls-1" d="M1674.2,2s-51.8,242.1-211.4,318.6S971.5,563.9,1184,732.5s372,52.6,431.5,171c45.3,90,179.9,113.9,278.5,107.6V2C1754.9,8.7,1674.2,2,1674.2,2Z" transform="translate(0)"/><path class="cls-1" d="M1478.3,1561.4c43.4,207.2-389.9,25-516.2-46.1s-221.5-80.4-358-57.4S398.3,1660,248.3,1472.4C155.8,1356.7,59.9,1335.3,0,1336v85.5c58.1-16.2,121.3-18,151.6,11.1,60.3,57.8,9.8,83.2,163.4,202.8s339.8-105.1,440.7-112.2,213.4,87.2,430.8,190,434-9.4,434.7-123c.5-90.9,195-121.1,272.8-129.5V1231.8C1783.1,1238.9,1440.3,1380.1,1478.3,1561.4Z" transform="translate(0)"/><path class="cls-1" d="M1351.5,2203.6c-195.1-16.6-262.3,83.4-329.7,118.9s-224.6,28.1-396.7-118.9-271-138.9-451.2,42.8C93.8,2327.2,37.7,2321.2.1,2289.7v129.9c68.6-20.6,146.8-51.9,201.4-97.2,118.6-98.2,176.7-125.5,305.8-102.6s292.4,303.1,531,186,233.7-220.3,457.3-135.3c150,57,309.7,65.5,398.5,64.9V2113.1c-17.7,16.3-39,35.5-64.5,57.9C1732.1,2256.3,1546.6,2220.2,1351.5,2203.6Z" transform="translate(0)"/></g></g><path class="cls-1" d="M403.9,4474.5c11-231.3,225.2-137,417.2-323.3s55.7-495.2-472.7-766.1c-165.5-84.9-275.5-76-348.4-23.7V4711.2C178.2,4705.5,397.1,4618.7,403.9,4474.5Z" transform="translate(0)"/><path class="cls-1" d="M1593.4,3656.8c-62.5,64-48.7,214.3-208.4,290.9S893.8,4191,1106.3,4359.5s372,52.6,431.5,171c59.3,118,272,122.4,356.2,94.1v-1011C1737.3,3594.5,1657.9,3590.8,1593.4,3656.8Z" transform="translate(0)"/></svg>