<svg xmlns="http://www.w3.org/2000/svg" viewBox="0 0 245.2 142.2"><defs><style>.cls-1{fill:#26326c;}.cls-2{font-size:39.17px;}.cls-2,.cls-3{fill:#fff;font-family:LobsterTwo, Lobster Two;font-weight:700;font-style:italic;}.cls-3{font-size:44px;}</style></defs><g id="Layer_2" data-name="Layer 2"><g id="Layer_1-2" data-name="Layer 1"><path class="cls-1" d="M6.9,76.49a12.08,12.08,0,0,0-2.36,6.43,12.82,12.82,0,0,0,1.4,6.67,14.56,14.56,0,0,0,4.48,5.13,19.42,19.42,0,0,0,6.22,2.89,34.61,34.61,0,0,0,13.83.58,68.29,68.29,0,0,0,13.6-3.43q3.32-1.19,6.55-2.59c2.1-.93,4.21-2.06,6.34-3.1C61.22,87,65.53,84.88,69.91,83A192.76,192.76,0,0,1,97,73.35a165.73,165.73,0,0,1,28.38-5.13,119.78,119.78,0,0,1,81.9,22.28.25.25,0,0,1,0,.35.24.24,0,0,1-.31.07A184.28,184.28,0,0,0,180.88,80,147.77,147.77,0,0,0,153.58,74a164.75,164.75,0,0,0-27.92-1.06A150.34,150.34,0,0,0,97.89,77a190.32,190.32,0,0,0-26.83,8.69c-4.38,1.77-8.69,3.69-13,5.68-2.16,1-4.29,2-6.56,2.93S47,96,44.75,96.76a70.25,70.25,0,0,1-14.07,3.16,36.42,36.42,0,0,1-14.42-1,20.63,20.63,0,0,1-6.53-3.26A15.42,15.42,0,0,1,5.08,90a13.65,13.65,0,0,1-1.26-7.14A12.77,12.77,0,0,1,6.5,76.19a.24.24,0,0,1,.35,0A.24.24,0,0,1,6.9,76.49Z"/><text class="cls-2" transform="matrix(1.19, -0.26, 0.21, 0.98, 27.75, 92.41)">G</text><text class="cls-2" transform="matrix(1.13, -0.44, 0.36, 0.93, 57.62, 84.82)">i</text><text class="cls-2" transform="matrix(1.12, -0.47, 0.39, 0.92, 69.79, 79.79)">v</text><text class="cls-2" transform="matrix(1.16, -0.35, 0.29, 0.96, 87.31, 72.41)">e</text><text class="cls-2" transform="matrix(1.19, -0.25, 0.2, 0.98, 104.85, 67.26)"> </text><text class="cls-2" transform="matrix(1.21, -0.09, 0.08, 1, 113.98, 64.8)">a</text><path class="cls-1" d="M244.58,119.11c-2.32,3.18-11,.79-14.14-1.54l-4.49-3.3-28.2,11.55-6.22-4.59,8.34-5.76-2-1.47,3.68-5,3.73,2.74,8.9-6.16-12.32-9a18.19,18.19,0,0,1-5.46-7.93l-3.73,1.53-3-2.21,6.46-4.46,2.34-7.5,3,2.2-.35,4A18.08,18.08,0,0,1,210.3,85l12.31,9.06,3.22-10.33L222.11,81l3.67-5,2,1.48,3-9.68L237,72.41l-2.62,30.36,4.47,3.3C242.06,108.4,246.92,115.94,244.58,119.11Z"/><text class="cls-3" transform="translate(91.37 114.11) rotate(-25.71) scale(1.22 1)">S</text><text class="cls-3" transform="translate(115.23 102.02) rotate(-13.59) scale(1.22 1)">h</text><text class="cls-3" transform="matrix(1.22, 0.03, -0.02, 1, 139.77, 96.58)">i</text><text class="cls-3" transform="matrix(1.19, 0.27, -0.22, 0.98, 152.6, 96.69)">t</text></g></g></svg>
