<svg xmlns="http://www.w3.org/2000/svg" viewBox="0 0 156 66.4"><defs><style>.cls-1{fill:#dc4e9c;}.cls-2{fill:#243d98;}</style></defs><g id="Layer_2" data-name="Layer 2"><g id="Layer_2-2" data-name="Layer 2"><g id="Group_16" data-name="Group 16"><path class="cls-1" d="M137,0H19a19,19,0,0,0,0,38H125.37l4.09,9.61,8,18.79,8-18.79,7.32-17.19A17.91,17.91,0,0,0,155.33,24a18.66,18.66,0,0,0,.67-5A19,19,0,0,0,137,0Zm10.8,28.83a13.4,13.4,0,1,1,3.11-8.58A13.38,13.38,0,0,1,147.8,28.83Z"/></g><path class="cls-2" d="M146,23a3,3,0,0,1-2.6,2.94l-.37,0H131.14a3.24,3.24,0,0,1,0-6.47,3.1,3.1,0,0,1,.81.11,2.47,2.47,0,0,1-.16-.9,2.58,2.58,0,0,1,2.58-2.59,3.34,3.34,0,0,0,3.35-3.32,3.25,3.25,0,0,0-.09-.77,3.33,3.33,0,0,1,3.2,3.32,1.21,1.21,0,0,1,0,.19,3.23,3.23,0,0,1,2.6,3.17,3.32,3.32,0,0,1-.29,1.34A3,3,0,0,1,146,23Z"/></g></g></svg>