<?xml version="1.0" encoding="utf-8"?>
<!-- Generator: Adobe Illustrator 24.3.0, SVG Export Plug-In . SVG Version: 6.00 Build 0)  -->
<svg version="1.1" id="Layer_1" xmlns="http://www.w3.org/2000/svg" xmlns:xlink="http://www.w3.org/1999/xlink" x="0px" y="0px"
	 viewBox="0 0 25.4 20" style="enable-background:new 0 0 25.4 20;" xml:space="preserve">
<style type="text/css">
	.st0{fill:none;stroke:#122173;stroke-width:2;stroke-miterlimit:10;}
</style>
<g id="Layer_2_1_">
	<g id="Layer_2-2">
		<path class="st0" d="M24.4,15.2c0,1.9-1.5,3.6-3.4,3.8c-0.2,0-0.3,0-0.5,0H5.2c-2.3,0.1-4.3-1.7-4.4-4s1.7-4.3,4-4.4
			c0.1,0,0.3,0,0.4,0c0.3,0,0.7,0.1,1,0.1C6.1,10.4,6,10.1,6,9.7c0-1.8,1.5-3.3,3.3-3.3c0,0,0,0,0,0c2.4,0,4.3-1.9,4.3-4.3
			c0-0.3,0-0.7-0.1-1c2.3,0.1,4.1,2,4.1,4.3c0,0.1,0,0.2,0,0.2C20,6,21.4,8.2,21,10.4c-0.1,0.3-0.2,0.6-0.3,0.9
			C22.8,11.4,24.4,13.1,24.4,15.2z"/>
	</g>
</g>
</svg>
