<?xml version="1.0" encoding="utf-8"?>
<!-- Generator: Adobe Illustrator 24.3.0, SVG Export Plug-In . SVG Version: 6.00 Build 0)  -->
<svg version="1.1" id="Layer_1" xmlns="http://www.w3.org/2000/svg" xmlns:xlink="http://www.w3.org/1999/xlink" x="0px" y="0px"
	 viewBox="0 0 23.4 18" style="enable-background:new 0 0 23.4 18;" xml:space="preserve">
<style type="text/css">
	.st0{fill:#122173;}
</style>
<g id="Layer_2_1_">
	<g id="Layer_2-2">
		<path class="st0" d="M23.4,14.2c0,2-1.4,3.6-3.4,3.8c-0.2,0-0.3,0-0.5,0H4.2c-2.3,0.1-4.3-1.7-4.4-4s1.7-4.3,4-4.4
			c0.1,0,0.3,0,0.4,0c0.3,0,0.7,0.1,1,0.1C5,9.4,5,9,5,8.6c0-1.8,1.5-3.3,3.3-3.3c0,0,0,0,0,0c2.4,0,4.3-1.9,4.3-4.3
			c0-0.3,0-0.7-0.1-1c2.3,0.1,4.1,2,4.1,4.3c0,0.1,0,0.2,0,0.2C19,5,20.4,7.2,20,9.4c-0.1,0.3-0.2,0.6-0.3,0.9
			C21.8,10.4,23.4,12.1,23.4,14.2z"/>
	</g>
</g>
</svg>
