<svg xmlns="http://www.w3.org/2000/svg" viewBox="0 0 40.38 37.54"><defs><style>.cls-1,.cls-2{fill:none;stroke:#292d6e;stroke-miterlimit:10;}.cls-1{stroke-width:4px;}.cls-2{stroke-width:2px;}</style></defs><g id="Layer_2" data-name="Layer 2"><g id="Layer_1-2" data-name="Layer 1"><path class="cls-1" d="M13,7.91s8.31,4.77-2.12,12,3.71,15.91,3.71,15.91"/><path class="cls-1" d="M23.77,5.44s-5.28,8.83-1.85,14S25,31.77,23.77,34.6"/><path class="cls-1" d="M31.19,13.21s-1.77,3.72,3.18,8.66S32.63,34.6,32.63,34.6"/><path class="cls-2" d="M7.74,12.2c-.3,1.18-2,1.74-3.9,1.27s-3.1-1.82-2.79-3C1.29,9.54,2.45,9,3.86,9.05a6,6,0,0,1,1.08.16C6.79,9.69,8,11,7.74,12.2Z"/><path class="cls-2" d="M3.86,9.05S2,3.31,5.55,5.05s1,4.69,1,4.69"/><path class="cls-2" d="M3.06,13.2s-3.18,1.89-1,4,4-.69,3.5-3.61"/><path class="cls-2" d="M31.46,8.6c-.62-1,.21-2.68,1.86-3.65s3.47-.91,4.09.13c.49.84.06,2.05-1,3a4.89,4.89,0,0,1-.88.65C33.91,9.7,32.07,9.64,31.46,8.6Z"/><path class="cls-2" d="M36.43,8.08s5.35,2.78,1.63,4-4-2.63-4-2.63"/><path class="cls-2" d="M34.07,4.58S35,1,32,1,29.59,4.34,32,6"/></g></g></svg>