<svg xmlns="http://www.w3.org/2000/svg" viewBox="0 0 40.48 36.5"><defs><style>.cls-1,.cls-2{fill:none;stroke:#292d6e;}.cls-1{stroke-miterlimit:10;stroke-width:4px;}.cls-2{stroke-linecap:round;stroke-width:2px;}</style></defs><g id="Layer_2" data-name="Layer 2"><g id="Layer_1-2" data-name="Layer 1"><path id="Path_72" data-name="Path 72" class="cls-1" d="M38.48,17.27c0,2.63-2.65,4.77-5.92,4.77a6.87,6.87,0,0,1-4-1.21c-1.32,2.15-4.43,3.67-8,3.67S14,23.05,12.6,21A6.9,6.9,0,1,1,11.26,8.63,6.9,6.9,0,0,1,24.42,6a9.29,9.29,0,0,1,1.66-.13c4.05,0,7.34,2.22,7.34,5A3.46,3.46,0,0,1,33,12.51C36.06,12.69,38.48,14.76,38.48,17.27Z"/><line id="Line_59" data-name="Line 59" class="cls-2" x1="4.77" y1="24.5" x2="4.77" y2="31.5"/><line id="Line_60" data-name="Line 60" class="cls-2" x1="10.77" y1="26.5" x2="10.77" y2="35.5"/><line id="Line_61" data-name="Line 61" class="cls-2" x1="31.08" y1="27.5" x2="31.08" y2="33.5"/><line id="Line_62" data-name="Line 62" class="cls-2" x1="17.58" y1="28.5" x2="17.58" y2="32.5"/><line id="Line_63" data-name="Line 63" class="cls-2" x1="23.22" y1="28.5" x2="23.22" y2="35.5"/><line id="Line_64" data-name="Line 64" class="cls-2" x1="36.97" y1="26.5" x2="36.97" y2="35.5"/></g></g></svg>