<svg id="Layer_1" data-name="Layer 1" xmlns="http://www.w3.org/2000/svg" viewBox="0 0 1894.03 5012.68"><defs><style>.cls-1{fill:#f7d1e3;}</style></defs><g id="Layer_2" data-name="Layer 2"><g id="Layer_1-2" data-name="Layer 1-2"><path class="cls-1" d="M739.91,759.52s-77.45-26.09-43.17,52.38S835.45,903.22,807,839.18,739.91,759.52,739.91,759.52Z"/><path class="cls-1" d="M1620.74,2898.34c-62.63,2.85-197-100.9-281.38-38.66s-133.48,166.49-358.13,77.11S655.79,2999,655.79,2999s-351.51,227-355.2,39.83C297.76,2895.62,95,2831.27,0,2809v58.53c9.87,5.9,21.07,12.31,33.8,19.28,159.58,87.36,114.14,194.57,215.85,215.73s173.39,96.74,332.33,0,130.57-70.24,366.18-33.9,357-82.7,500.24-131.8c108.86-37.32,340.63,51.69,445.63,96.58v-219.6C1816.73,2919,1678.86,2895.69,1620.74,2898.34Z"/><path class="cls-1" d="M481.62,861.32c11-231.28,225.2-137,417.21-323.33C1038.18,402.77,1004.61,203,773.69,0H0V1094.76C184.21,1117.45,473.74,1027.44,481.62,861.32Z"/><path class="cls-1" d="M1674.16,2s-51.83,242.06-211.45,318.62S971.51,563.93,1184,732.45s372,52.62,431.54,171c45.26,90,179.87,113.91,278.5,107.63V2C1754.87,8.7,1674.16,2,1674.16,2Z"/><path class="cls-1" d="M1478.31,1561.39c43.38,207.16-389.9,25-516.2-46.08s-221.47-80.38-358-57.38S398.32,1660,248.34,1472.43C155.82,1356.71,59.91,1335.35,0,1336v85.54c58.09-16.25,121.3-18,151.65,11.14,60.27,57.85,9.77,83.18,163.39,202.8s339.81-105.11,440.72-112.19,213.44,87.19,430.82,190,434-9.39,434.68-123c.51-90.89,195-121.06,272.77-129.5V1231.87C1783.11,1238.94,1440.34,1380.1,1478.31,1561.39Z"/><path class="cls-1" d="M1351.51,2203.58c-195.09-16.63-262.26,83.42-329.72,118.89s-224.56,28.1-396.7-118.89-271-138.88-451.25,42.84C93.72,2327.19,37.61,2321.25,0,2289.72v129.92c68.56-20.63,146.81-51.94,201.4-97.17C320,2224.22,378.14,2197,507.17,2219.82s292.44,303.08,531.05,186,233.65-220.28,457.28-135.3c150,57,309.65,65.49,398.53,64.9V2113.11c-17.67,16.27-39,35.53-64.54,57.86C1732.08,2256.28,1546.6,2220.22,1351.51,2203.58Z"/></g></g><g id="Layer_2-2" data-name="Layer 2"><g id="Layer_1-2-2" data-name="Layer 1-2"><path id="Path_1" data-name="Path 1" class="cls-1" d="M-141.87,3798.94s-38.22-684.82,490.26-413.89,664.74,579.82,472.74,766.14-406.24,92.06-417.21,323.33-567.79,315-626.4,152.53S-141.87,3798.94-141.87,3798.94Z"/></g></g><g id="Layer_2-3" data-name="Layer 2"><g id="Layer_1-2-3" data-name="Layer 1-2"><path id="Path_3" data-name="Path 3" class="cls-1" d="M1593.36,3656.76c-62.53,64-48.73,214.31-208.35,290.87s-491.2,243.29-278.7,411.79,372,52.61,431.54,171,273.58,122.44,357.11,93.82,496.31-955.9,198.48-987.1S1680.81,3567.29,1593.36,3656.76Z"/></g></g></svg>