<svg id="Layer_1" data-name="Layer 1" xmlns="http://www.w3.org/2000/svg" viewBox="0 0 241.44 97.21"><defs><style>.cls-1{fill:#26326c;}.cls-2,.cls-3,.cls-4,.cls-5,.cls-6,.cls-7,.cls-8,.cls-9{isolation:isolate;fill:#fff;font-family:LobsterTwo-Bold, Lobster Two;font-weight:700;}.cls-2{font-size:39.26px;}.cls-3{font-size:39.06px;}.cls-4{font-size:39.14px;}.cls-5{font-size:39.28px;}.cls-6{font-size:39.3px;}.cls-7{font-size:44px;}.cls-8{font-size:44.01px;}.cls-9{font-size:44.19px;}</style></defs><g id="Layer_2" data-name="Layer 2"><g id="Layer_1-2" data-name="Layer 1-2"><path class="cls-1" d="M5,62.24a12.07,12.07,0,0,0-2.36,6.43,12.86,12.86,0,0,0,1.4,6.67,14.56,14.56,0,0,0,4.48,5.13,19.62,19.62,0,0,0,6.22,2.89,34.66,34.66,0,0,0,13.83.58,67.77,67.77,0,0,0,13.6-3.43c2.22-.79,4.4-1.66,6.55-2.59s4.21-2.06,6.34-3.1c4.26-2.07,8.57-4.19,13-6.07A192.66,192.66,0,0,1,95.12,59.1,165.81,165.81,0,0,1,123.5,54a119.78,119.78,0,0,1,81.9,22.28.24.24,0,0,1,0,.35.24.24,0,0,1-.31.07A184.55,184.55,0,0,0,179,65.75a147.36,147.36,0,0,0-27.3-6,164.87,164.87,0,0,0-27.92-1.06A149.69,149.69,0,0,0,96,62.75a190.35,190.35,0,0,0-26.83,8.69c-4.38,1.77-8.69,3.69-13,5.68-2.16,1-4.29,2-6.56,2.93s-4.5,1.7-6.75,2.46A70.57,70.57,0,0,1,28.8,85.67a36.55,36.55,0,0,1-14.42-1,20.63,20.63,0,0,1-6.53-3.26A15.57,15.57,0,0,1,3.2,75.75a13.72,13.72,0,0,1-1.26-7.14,12.84,12.84,0,0,1,2.68-6.67.24.24,0,0,1,.34,0H5A.23.23,0,0,1,5,62.24Z" transform="translate(-1.88 -14.36)"/><text class="cls-2" transform="matrix(1.19, -0.26, 0.21, 0.98, 23.98, 63.79)">G</text><text class="cls-3" transform="matrix(1.13, -0.44, 0.36, 0.93, 53.82, 56.25)">i</text><text class="cls-4" transform="matrix(1.12, -0.47, 0.39, 0.92, 66, 51.18)">v</text><text class="cls-5" transform="matrix(1.16, -0.35, 0.29, 0.96, 83.57, 43.85)">e</text><text class="cls-6" transform="matrix(1.21, -0.09, 0.08, 1, 110.3, 36.2)">a</text><path class="cls-1" d="M242.7,104.86c-2.32,3.18-11,.79-14.14-1.54l-4.49-3.3-28.2,11.55L189.65,107l8.34-5.76-2-1.47,3.68-5,3.73,2.74,8.9-6.16-12.32-9a18.23,18.23,0,0,1-5.46-7.93l-3.73,1.53-3-2.21,6.46-4.46,2.34-7.5,3,2.2-.35,4a18.09,18.09,0,0,1,9.18,2.79l12.31,9.06L224,69.48l-3.72-2.73,3.67-5,2,1.48,3-9.68,6.22,4.61L232.5,88.52l4.47,3.3C240.18,94.15,245,101.69,242.7,104.86Z" transform="translate(-1.88 -14.36)"/><text class="cls-7" transform="translate(87.64 85.47) rotate(-25.71) scale(1.22 1)">S</text><text class="cls-7" transform="translate(111.43 73.41) rotate(-13.59) scale(1.22 1)">h</text><text class="cls-8" transform="matrix(1.22, 0.03, -0.02, 1, 136, 67.95)">i</text><text class="cls-9" transform="matrix(1.18, 0.27, -0.22, 0.98, 148.8, 68.13)">t</text></g></g></svg>
