<svg id="Layer_1" data-name="Layer 1" xmlns="http://www.w3.org/2000/svg" viewBox="0 0 552 2467"><defs><style>.cls-1{fill:#fcd1ed;}</style></defs><path class="cls-1" d="M347.77,919.38c-159.62,76.56-491.2,243.29-278.7,411.79s372,52.61,431.54,171c11.8,23.46,29.68,42.41,51.39,57.53V633C494.13,699.27,503.79,844.55,347.77,919.38Z"/><path class="cls-1" d="M150.2,416.51c10.68-225.1,213.92-141.82,401.8-309V0H0V593C84.24,552.39,146.61,492.39,150.2,416.51Z"/><path class="cls-1" d="M519.05,2192.28c-73.95-50.37-219.53-10.49-322.83-154.25C148.93,1972.22,76.74,1874.25,0,1810.24V2467H552V2220.77A180.21,180.21,0,0,0,519.05,2192.28Z"/></svg>
